<?xml version="1.0" encoding="utf-8"?>


<!-- The icon can be used freely in both personal and commercial projects with no attribution required, but always appreciated. 
You may NOT sub-license, resell, rent, redistribute or otherwise transfer the icon without express written permission from iconmonstr.com -->


<!DOCTYPE svg PUBLIC "-//W3C//DTD SVG 1.1//EN" "http://www.w3.org/Graphics/SVG/1.1/DTD/svg11.dtd">

<svg version="1.1" xmlns="http://www.w3.org/2000/svg" xmlns:xlink="http://www.w3.org/1999/xlink" x="0px" y="0px"

	 width="512px" height="512px" viewBox="0 0 512 512" enable-background="new 0 0 512 512" xml:space="preserve">

<path id="speech-bubble-14-icon" fill="#299cad" d="M440.704,391.771C454.312,375.362,462,354.216,462,332.679c0-35.26-19.864-65.01-49.435-83.766

	c4.186-13.053,6.395-26.594,6.395-40.27c0-90.207-87.645-155.312-184.479-155.312C137.037,53.331,50,118.929,50,208.644

	c0,31.822,11.358,63.066,31.465,87.309c0.849,28.41-15.719,69.156-30.643,98.842c39.998-7.295,96.866-23.416,122.654-39.357

	c15.134,3.717,29.826,6.027,44.007,7.1c17.877,50.588,80.211,89.32,160.944,69.494c17.455,10.789,55.943,21.699,83.016,26.639

	C451.342,438.577,440.129,410.999,440.704,391.771z M172.431,318.04c-34.595,20.203-65.042,28.264-65.042,28.264

	s10.299-27.762,14.588-59.699c-21.101-21.508-36.05-43.32-36.05-77.961c0-65.83,66.641-119.387,148.554-119.387

	c81.912,0,148.554,53.557,148.554,119.387C383.034,276.784,304.718,353.12,172.431,318.04z M418.856,421.499

	c0,0-19.577-5.182-41.82-18.172c-65.705,17.422-110.659-7.877-127.746-40.469c70.42-4.076,124.766-40.012,151.465-87.078

	c19.564,14.066,31.901,34.5,31.901,57.207c0,22.273-9.612,36.297-23.179,50.127C412.234,403.649,418.856,421.499,418.856,421.499z"

	/>

</svg>

