<svg xmlns="http://www.w3.org/2000/svg" width="512" height="512" viewBox="0 0 512 512"><path fill="#299cad" d="M440.704 391.77C454.312 375.363 462 354.217 462 332.68c0-35.26-19.864-65.01-49.435-83.767 4.186-13.053 6.395-26.594 6.395-40.27 0-90.207-87.645-155.312-184.48-155.312C137.038 53.33 50 118.93 50 208.645c0 31.822 11.358 63.066 31.465 87.31.85 28.41-15.72 69.155-30.643 98.84 39.998-7.294 96.866-23.415 122.654-39.356 15.134 3.717 29.826 6.027 44.007 7.1 17.877 50.588 80.21 89.32 160.944 69.494 17.455 10.79 55.943 21.7 83.016 26.64-10.1-20.095-21.314-47.673-20.74-66.9zM172.43 318.04c-34.594 20.203-65.04 28.264-65.04 28.264s10.298-27.762 14.587-59.7c-21.1-21.507-36.05-43.32-36.05-77.96 0-65.83 66.64-119.387 148.554-119.387 81.913 0 148.555 53.557 148.555 119.387 0 68.14-78.317 144.476-210.604 109.396zM418.857 421.5s-19.577-5.183-41.82-18.173c-65.705 17.422-110.66-7.877-127.746-40.47 70.42-4.075 124.766-40.01 151.465-87.077 19.564 14.066 31.9 34.5 31.9 57.207 0 22.273-9.61 36.297-23.178 50.127 2.757 20.535 9.38 38.385 9.38 38.385z"/></svg>